<?xml version="1.0" encoding="UTF-8" standalone="no"?>
<svg
   version="1.0"
   width="730.05463pt"
   height="433.23044pt"
   viewBox="0 0 730.05463 433.23044"
   preserveAspectRatio="xMidYMid meet"
   id="svg6"
   sodipodi:docname="Gosduma_logo.svg"
   inkscape:version="1.1.2 (b8e25be833, 2022-02-05)"
   xmlns:inkscape="http://www.inkscape.org/namespaces/inkscape"
   xmlns:sodipodi="http://sodipodi.sourceforge.net/DTD/sodipodi-0.dtd"
   xmlns="http://www.w3.org/2000/svg"
   xmlns:svg="http://www.w3.org/2000/svg">
  <defs
     id="defs10" />
  <sodipodi:namedview
     id="namedview8"
     pagecolor="#505050"
     bordercolor="#eeeeee"
     borderopacity="1"
     inkscape:pageshadow="0"
     inkscape:pageopacity="0"
     inkscape:pagecheckerboard="0"
     inkscape:document-units="pt"
     showgrid="false"
     fit-margin-top="0"
     fit-margin-left="0"
     fit-margin-right="0"
     fit-margin-bottom="0"
     inkscape:zoom="1.0525672"
     inkscape:cx="486.42973"
     inkscape:cy="303.06852"
     inkscape:window-width="1920"
     inkscape:window-height="1017"
     inkscape:window-x="-8"
     inkscape:window-y="-8"
     inkscape:window-maximized="1"
     inkscape:current-layer="svg6" />
  <g
     transform="matrix(0.1,0,0,-0.1,-44.44536,482.35464)"
     fill="#4679ca"
     stroke="none"
     id="g4">
    <path
       d="m 4455,4820 c -11,-5 -94,-31 -185,-60 -91,-28 -172,-55 -180,-59 -13,-7 -15,-45 -18,-235 l -2,-226 h -130 c -150,0 -138,10 -142,-120 l -3,-75 -392,-3 -393,-2 v -179 c 0,-99 -3,-186 -6,-195 -5,-14 -41,-16 -295,-16 -224,0 -289,3 -290,13 0,6 -1,39 -1,72 0,33 -2,70 -4,83 l -4,22 h -379 c -209,0 -386,3 -395,6 -13,5 -16,24 -16,100 v 94 h -489 c -382,0 -490,-3 -494,-12 -2,-7 -2,-751 1,-1654 3,-902 2,-1653 -2,-1667 -6,-27 -7,-27 -96,-27 -76,0 -89,-2 -93,-17 -4,-16 -3,-103 1,-156 2,-16 181,-17 3650,-15 l 3647,3 v 90 90 l -95,5 -95,5 -5,1675 -5,1675 h -485 -485 l -3,-70 c -1,-38 -4,-80 -7,-92 l -5,-23 h -400 -400 v -100 -100 l -282,2 -283,3 -5,190 -5,190 -397,3 -397,2 -3,98 -3,97 -135,5 -135,5 v 95 95 l 185,62 185,61 3,128 c 1,70 -1,131 -5,135 -4,4 -17,3 -28,-1 z M 1028,2368 1030,1280 H 930 830 v 1090 1091 l 98,-3 97,-3 z m 400,0 2,-1088 h -105 -105 v 1083 c 0,596 3,1087 7,1091 4,4 50,5 103,4 l 95,-3 z m 5520,1084 c 10,-7 12,-232 10,-1093 l -3,-1084 h -95 -95 l -5,1075 c -3,591 -3,1080 -2,1087 2,6 16,14 30,16 50,7 147,7 160,-1 z m 391,-2 c 11,-6 17,-2153 6,-2171 -7,-10 -154,-13 -179,-3 -14,6 -16,111 -16,1089 0,857 3,1084 13,1088 18,8 164,5 176,-3 z M 1825,3238 c 3,-13 4,-547 3,-1188 l -3,-1165 h -100 -100 l -3,1175 c -1,646 0,1181 3,1188 3,8 33,12 99,12 91,0 96,-1 101,-22 z m 383,10 c 9,-9 12,-284 12,-1174 0,-639 -3,-1169 -6,-1178 -5,-13 -24,-16 -100,-16 h -94 v 1190 1190 h 88 c 55,0 92,-4 100,-12 z m 1590,-785 2,-793 h -99 c -94,0 -99,1 -105,23 -8,29 -8,1531 0,1552 5,13 22,15 103,13 l 96,-3 z m 394,780 c 2,-10 4,-367 4,-793 l -1,-775 h -100 -100 l -3,780 c -1,429 0,786 3,793 3,8 33,12 99,12 82,0 95,-2 98,-17 z m 393,-5 c 3,-13 4,-369 3,-793 l -3,-770 -97,-3 c -88,-2 -98,-1 -98,15 -3,371 2,1558 6,1564 3,5 45,9 94,9 85,0 90,-1 95,-22 z m 1979,-445 c 7,-489 6,-1865 -2,-1896 -4,-16 -15,-17 -101,-15 l -96,3 -3,1165 c -1,641 0,1175 3,1188 5,21 10,22 99,22 h 93 z M 2610,2460 v -790 h -100 -100 v 790 790 h 100 100 z m 395,0 v -785 h -100 -100 l -3,788 -2,788 102,-3 103,-3 z m 398,653 c 8,-183 9,-2196 1,-2217 -9,-24 -199,-24 -208,0 -8,22 -8,2339 1,2347 3,4 50,7 103,7 h 97 z M 4988,2085 c 1,-638 0,-1170 -3,-1182 -5,-22 -10,-23 -104,-23 h -99 l -4,77 c -2,43 -2,577 0,1186 l 3,1108 102,-3 102,-3 z m 392,375 v -790 h -99 c -88,0 -100,2 -106,18 -7,23 -5,1460 2,1520 l 5,42 h 99 99 z m 392,58 c 2,-403 1,-759 0,-791 l -4,-58 -96,3 -97,3 -3,788 -2,787 h 100 100 z m 398,-453 V 880 h -100 -100 v 1185 1185 h 100 100 z M 2610,1180 V 880 h -100 -100 v 300 300 h 100 100 z m 394,284 c 9,-24 7,-557 -2,-572 -6,-9 -34,-12 -103,-10 l -94,3 -3,285 c -1,157 0,290 3,297 3,9 32,13 99,13 76,0 95,-3 100,-16 z m 791,6 c 4,-7 8,-389 5,-572 0,-16 -11,-18 -99,-18 -81,0 -100,3 -105,16 -11,28 -7,544 4,565 9,17 22,19 100,19 49,0 92,-4 95,-10 z m 789,-12 c 8,-30 8,-542 0,-562 -5,-13 -24,-16 -100,-16 h -93 l -3,278 c -2,152 0,287 4,300 7,21 13,22 97,22 84,0 89,-1 95,-22 z m 769,13 27,-1 V 1175 880 h -99 c -72,0 -100,4 -104,13 -10,25 -8,547 2,565 10,19 25,20 174,13 z m 415,-295 2,-297 -97,3 -98,3 -3,289 c -1,169 2,292 7,295 5,3 49,5 98,5 l 88,-1 z M 1432,1018 c 1,-35 1,-80 -1,-100 l -3,-38 H 1129 830 l -1,38 c 0,20 -1,60 -3,87 -1,28 -1,56 2,63 3,9 73,12 302,12 h 298 z m 5920,15 c 2,-27 1,-72 0,-100 l -4,-53 h -293 -293 l -6,28 c -4,22 -3,106 3,160 1,9 67,12 295,12 h 295 z"
       id="path2" />
  </g>
</svg>
